<svg width="98" height="22" viewBox="0 0 98 22" xmlns="http://www.w3.org/2000/svg" xmlns:xlink="http://www.w3.org/1999/xlink">
    <defs>
        <rect id="re4w6wuida" x="0" y="0" width="96" height="20" rx="2"/>
    </defs>
    <g transform="translate(1 1)" fill="none" fill-rule="evenodd">
        <mask id="l11j5n4xkb" fill="#fff">
            <use xlink:href="#re4w6wuida"/>
        </mask>
        <rect stroke="#52F6C6" stroke-width=".5" x="-.25" y="-.25" width="96.5" height="20.5" rx="2"/>
        <g mask="url(#l11j5n4xkb)" fill="#52F6C6" fill-rule="nonzero">
            <path d="M14.166 11.054c.135.615.255 1.172.358 1.67.048.21.092.42.132.631.04.21.078.401.114.572l.09.438c.023.121.04.197.047.228.024.156-.012.259-.108.31a.68.68 0 0 1-.322.075.565.565 0 0 1-.174-.04 7.37 7.37 0 0 1-.173-.065l-3.122-1.775a107.168 107.168 0 0 1-2.135 1.203c-.195.11-.372.21-.532.304-.16.093-.297.171-.412.233a2.701 2.701 0 0 1-.234.117.417.417 0 0 1-.245.041.522.522 0 0 1-.227-.088.435.435 0 0 1-.15-.169.303.303 0 0 1-.023-.204l.06-.228c.031-.12.067-.265.107-.432a72.078 72.078 0 0 1 .299-1.174l.407-1.635a218.257 218.257 0 0 0-1.74-1.454 38.703 38.703 0 0 1-.419-.35 34.5 34.5 0 0 0-.437-.368 1.404 1.404 0 0 1-.245-.287.457.457 0 0 1-.077-.32.404.404 0 0 1 .131-.258.491.491 0 0 1 .24-.116l3.695-.327 1.375-3.13a.928.928 0 0 1 .203-.322.48.48 0 0 1 .36-.134c.079 0 .149.018.209.053s.11.075.149.122c.04.047.074.094.102.14.028.047.05.086.065.117l1.34 3.13 3.695.339c.16.039.272.085.335.14.064.055.096.14.096.257a.435.435 0 0 1-.102.286c-.067.082-.153.181-.257.298l-2.475 2.172z"/>
        </g>
        <text mask="url(#l11j5n4xkb)" font-family="Versa-Versa, Versa" font-size="14" fill="#52F6C6">
                    <tspan x="22" y="15">exhibitor</tspan>
                </text>
    </g>
</svg>
